<?xml version="1.0" encoding="UTF-8" ?>
<!DOCTYPE svg PUBLIC "-//W3C//DTD SVG 1.1//EN" "http://www.w3.org/Graphics/SVG/1.1/DTD/svg11.dtd">
<svg width="1408pt" height="768pt" viewBox="0 0 1408 768" version="1.1" xmlns="http://www.w3.org/2000/svg">
<g id="#ffffffff">
</g>
<g id="#c7bdb4ff">
</g>
<g id="#391215ff">
<path fill="#391215" opacity="1.00" d=" M 650.66 164.71 C 663.55 155.97 682.68 158.28 692.98 170.02 C 696.79 174.63 699.74 180.10 700.74 186.05 C 701.49 190.31 701.31 194.66 701.34 198.97 C 701.35 214.65 701.27 230.33 701.29 246.01 C 701.36 250.15 700.61 254.29 699.30 258.20 C 696.40 261.12 692.59 262.90 689.18 265.13 C 680.83 270.00 672.70 275.21 664.55 280.40 C 661.92 282.05 659.81 284.86 659.71 288.06 C 659.31 299.69 659.49 311.33 659.45 322.97 C 659.53 326.01 659.62 329.20 660.89 332.02 C 662.34 334.28 664.83 335.57 666.98 337.09 C 676.39 343.44 686.53 348.63 695.83 355.14 C 699.84 358.08 701.19 363.27 701.17 368.02 C 701.50 385.68 701.23 403.35 701.34 421.01 C 701.61 430.29 697.28 439.29 690.76 445.74 C 683.31 452.65 672.63 456.10 662.56 454.31 C 648.97 452.28 637.79 442.21 631.64 430.30 C 622.16 429.95 612.54 427.11 605.37 420.69 C 596.02 413.21 591.92 401.02 591.28 389.41 C 589.66 386.66 586.46 385.10 584.31 382.72 C 578.19 377.03 573.69 369.38 572.67 361.00 C 571.82 355.19 573.02 349.39 574.23 343.73 C 573.25 341.26 571.38 339.26 570.10 336.94 C 558.98 318.31 560.43 293.02 574.05 276.02 C 572.23 263.06 573.10 248.92 580.83 237.88 C 584.85 231.61 591.21 227.55 597.38 223.66 C 596.87 215.25 597.64 206.42 601.93 198.98 C 607.36 189.77 616.20 182.21 626.78 179.80 C 630.75 178.70 634.87 178.51 638.96 178.13 C 642.05 173.04 645.65 168.08 650.66 164.71 M 649.05 180.89 C 647.00 185.75 648.73 191.34 651.63 195.47 C 653.34 197.80 656.69 198.40 658.09 200.99 C 658.73 203.93 657.50 207.33 654.98 209.02 C 652.82 209.63 650.87 208.04 649.36 206.72 C 643.91 201.72 639.22 195.24 638.45 187.69 C 629.13 187.58 619.72 191.46 613.67 198.63 C 609.04 205.02 606.16 212.91 606.88 220.88 C 610.24 220.62 613.66 220.15 617.02 220.83 C 628.59 222.62 638.05 233.32 638.28 245.05 C 638.33 253.14 634.99 260.87 630.48 267.44 C 628.76 270.20 624.16 270.15 622.71 267.16 C 621.42 264.15 623.82 261.40 625.01 258.82 C 626.79 254.74 629.03 250.56 628.69 245.97 C 628.65 240.70 625.96 235.40 621.33 232.74 C 616.36 229.87 610.22 230.24 604.83 231.55 C 589.25 236.15 579.44 254.26 583.64 269.88 C 584.88 275.05 588.44 279.28 592.73 282.26 C 599.00 286.68 604.73 292.41 607.28 299.79 C 609.05 304.20 609.28 309.60 613.18 312.83 C 619.05 317.43 626.67 319.01 632.54 323.66 C 641.02 329.50 645.89 339.75 645.72 349.97 C 645.53 358.03 643.28 366.59 637.23 372.27 C 632.05 378.05 624.56 381.93 621.22 389.21 C 618.98 393.96 622.53 398.50 623.71 402.99 C 624.81 407.02 618.91 409.88 616.17 406.94 C 609.41 400.12 609.66 388.53 614.86 380.87 C 619.19 373.90 627.41 370.74 631.94 363.94 C 637.90 355.95 637.76 344.16 631.82 336.21 C 625.59 326.49 611.93 327.08 604.45 318.77 C 599.29 313.63 599.69 305.72 596.29 299.62 C 593.00 292.86 585.76 289.71 580.65 284.59 C 572.44 294.63 570.00 308.84 573.90 321.15 C 576.88 329.57 581.61 337.92 589.50 342.62 C 593.75 345.50 598.79 347.06 602.82 350.27 C 605.42 351.93 604.45 357.05 601.11 356.87 C 594.21 356.83 587.82 353.48 582.40 349.46 C 581.51 354.51 581.01 359.95 583.28 364.74 C 585.47 370.19 589.88 374.20 594.20 377.98 C 596.89 374.40 599.87 371.07 602.72 367.63 C 606.56 363.15 611.91 360.32 615.87 355.97 C 618.15 353.51 618.50 349.34 616.34 346.72 C 612.44 342.82 606.60 342.53 601.95 339.96 C 595.46 336.54 588.88 332.37 585.13 325.85 C 582.00 320.83 580.94 314.79 581.17 308.94 C 581.17 305.74 584.33 302.39 587.67 303.39 C 590.01 304.06 590.58 306.75 590.74 308.86 C 591.38 316.26 594.87 323.65 600.86 328.19 C 604.91 331.35 610.14 332.16 614.63 334.48 C 618.86 336.64 623.25 339.19 625.65 343.46 C 628.93 348.90 627.83 356.17 624.17 361.15 C 619.29 366.94 612.18 370.44 607.64 376.55 C 604.56 380.43 601.72 384.91 601.59 390.02 C 601.16 399.74 606.65 409.00 614.13 414.87 C 618.45 417.75 623.95 421.12 629.25 418.81 C 629.31 413.52 629.05 408.15 630.21 402.94 C 631.79 395.18 635.95 388.11 641.45 382.48 C 644.79 379.17 646.76 374.85 648.82 370.70 C 653.16 362.12 659.30 353.96 668.25 349.83 C 663.94 346.77 659.49 343.87 655.43 340.46 C 652.89 338.36 652.16 334.99 651.15 332.02 C 649.65 326.97 647.52 322.02 644.23 317.87 C 637.10 309.50 624.16 309.36 617.48 300.49 C 614.04 296.20 612.85 290.64 609.79 286.15 C 604.35 279.79 595.16 276.02 593.32 267.10 C 589.32 253.97 601.60 239.82 614.96 240.83 C 618.60 241.91 620.20 247.38 616.67 249.54 C 612.34 250.79 607.38 251.65 604.38 255.38 C 601.27 258.96 601.42 264.82 604.76 268.22 C 609.45 273.18 615.51 276.96 619.11 282.92 C 621.47 286.91 623.05 291.40 626.10 294.97 C 629.31 298.45 634.00 299.80 638.21 301.66 C 642.17 303.28 645.85 305.51 649.38 307.93 C 649.78 300.96 649.30 293.94 650.08 286.99 C 650.65 283.21 651.32 279.04 654.27 276.31 C 662.23 269.22 671.78 264.32 680.86 258.87 C 684.85 256.40 689.19 254.09 691.76 249.99 C 691.61 242.64 692.37 235.32 692.18 227.98 C 692.27 219.65 691.58 211.32 692.05 202.99 C 692.24 197.66 692.14 192.28 691.11 187.03 C 688.98 176.23 678.07 167.88 667.02 169.12 C 659.36 168.93 652.05 173.91 649.05 180.89 M 670.85 359.61 C 661.26 364.04 658.62 375.02 653.18 383.10 C 659.20 387.65 663.94 393.76 667.73 400.24 C 670.44 404.76 671.85 411.44 667.49 415.41 C 664.70 417.68 661.91 414.38 661.73 411.63 C 660.26 402.52 653.28 395.64 645.62 391.16 C 638.06 401.88 636.67 416.76 642.40 428.60 C 647.69 438.03 657.80 445.55 669.01 444.83 C 677.02 445.05 684.03 439.81 688.48 433.55 C 692.86 426.52 692.14 417.96 692.28 410.03 C 692.10 397.02 692.54 383.99 691.78 371.00 C 691.84 361.05 679.09 354.92 670.85 359.61 Z" />
<path fill="#391215" opacity="1.00" d=" M 659.35 185.01 C 658.56 181.18 662.49 178.40 666.01 179.19 C 676.93 179.21 684.73 190.83 682.84 201.10 C 681.99 209.76 674.78 215.46 670.20 222.21 C 667.18 228.10 666.02 235.36 660.46 239.61 C 656.65 243.24 650.00 242.06 647.11 237.87 C 644.25 233.61 642.47 228.70 639.40 224.56 C 635.16 218.94 629.29 214.16 622.34 212.48 C 620.62 212.06 619.30 210.71 618.57 209.15 C 618.87 207.25 619.40 204.29 621.86 204.22 C 626.84 203.48 631.61 205.75 635.76 208.24 C 643.58 213.21 648.81 221.21 652.85 229.36 C 653.44 231.19 655.55 231.05 657.09 231.50 C 659.24 225.66 660.42 219.31 664.27 214.25 C 667.42 209.21 672.46 205.07 673.72 199.06 C 674.68 193.84 669.95 189.39 665.05 188.90 C 662.64 188.67 658.91 188.39 659.35 185.01 Z" />
<path fill="#391215" opacity="1.00" d=" M 678.16 226.07 C 681.54 223.70 685.78 227.35 684.69 231.05 C 683.02 240.61 678.26 250.77 669.06 255.10 C 660.22 259.66 650.82 264.98 646.24 274.26 C 643.44 278.69 643.25 284.02 642.90 289.08 C 642.36 292.67 637.48 292.36 635.10 290.92 C 632.37 289.17 633.51 285.55 633.53 282.89 C 635.14 269.90 643.94 258.57 655.04 252.04 C 662.27 248.48 670.39 244.46 673.27 236.30 C 675.22 233.05 674.28 227.91 678.16 226.07 Z" />
<path fill="#391215" opacity="1.00" d=" M 674.56 367.60 C 676.86 365.78 680.98 365.96 682.26 368.94 C 684.32 374.91 674.74 377.06 676.88 383.09 C 679.88 391.11 686.20 398.01 686.73 406.89 C 687.02 414.71 685.71 423.28 680.35 429.34 C 675.44 434.91 667.04 436.31 660.21 433.88 C 651.26 431.06 643.98 421.67 645.49 412.09 C 645.71 408.56 649.96 406.26 652.98 408.23 C 655.20 409.28 655.29 411.97 655.58 414.09 C 655.85 417.70 657.79 421.12 660.67 423.30 C 665.54 427.02 673.81 424.99 675.90 419.07 C 677.27 414.59 677.72 409.69 676.60 405.10 C 675.33 398.52 670.07 393.65 668.58 387.13 C 667.26 382.05 666.40 375.61 670.28 371.40 C 671.57 369.99 673.04 368.75 674.56 367.60 Z" />
</g>
<g id="#551e22ff">
<path fill="#551e22" opacity="1.00" d=" M 717.46 168.56 C 725.59 160.89 737.78 157.48 748.61 160.57 C 757.79 163.13 765.32 169.95 769.69 178.33 C 783.39 178.07 797.48 184.11 805.65 195.32 C 811.82 203.57 813.25 214.39 811.84 224.38 C 821.61 228.47 830.02 236.33 833.58 246.44 C 836.82 255.89 836.21 266.07 835.43 275.88 C 841.59 283.24 846.12 292.26 846.84 301.94 C 848.22 315.31 845.49 329.53 837.46 340.52 C 836.73 341.60 836.03 342.68 835.35 343.78 C 837.01 354.08 837.45 365.56 831.70 374.74 C 828.22 379.82 823.86 384.28 818.99 388.03 C 817.38 389.17 817.99 391.43 817.64 393.10 C 816.80 407.05 808.40 420.79 795.43 426.54 C 789.19 429.65 782.15 430.34 775.33 431.10 C 771.00 442.68 760.60 451.80 748.43 454.17 C 741.13 455.22 733.26 455.13 726.62 451.52 C 718.22 447.60 711.64 439.93 709.39 430.90 C 707.68 424.07 708.55 416.98 708.44 410.03 C 708.60 398.02 708.13 386.03 708.09 374.02 C 707.92 367.62 707.53 359.51 713.42 355.34 C 719.80 350.63 726.72 346.70 733.47 342.55 C 739.37 340.08 744.71 336.12 748.10 330.62 L 748.45 330.53 C 748.94 330.40 749.91 330.15 750.40 330.03 C 752.20 320.41 750.41 310.66 751.07 300.98 C 751.36 295.89 751.12 290.80 750.54 285.75 C 750.00 285.32 748.91 284.46 748.36 284.03 C 736.51 273.65 721.74 267.42 709.28 257.86 C 708.59 254.28 708.07 250.65 708.17 247.00 C 708.41 228.67 708.08 210.34 708.17 192.01 C 708.11 183.41 711.40 174.71 717.46 168.56 M 734.38 169.60 C 725.34 171.60 718.72 180.08 717.69 189.08 C 717.14 202.58 717.94 216.10 717.67 229.61 C 721.71 229.65 725.75 229.66 729.80 229.69 C 729.68 220.25 729.77 210.81 729.82 201.36 C 727.49 198.71 724.19 195.94 724.57 192.04 C 724.56 186.89 728.99 182.39 733.99 181.75 C 740.70 180.90 746.95 188.28 744.76 194.75 C 743.97 197.67 741.51 199.59 739.40 201.56 C 738.99 212.73 739.38 223.91 739.12 235.09 C 739.12 236.28 738.60 238.25 737.11 238.25 C 730.64 238.86 724.11 238.40 717.63 238.34 C 717.72 242.55 717.43 246.76 717.75 250.96 C 718.69 252.41 720.23 253.29 721.64 254.25 C 726.38 257.20 730.79 260.75 736.05 262.80 C 742.02 256.82 747.99 250.76 753.29 244.18 C 754.03 236.38 753.51 228.48 753.51 220.64 C 751.95 219.49 750.23 218.45 749.08 216.85 C 745.99 212.19 747.37 204.98 752.43 202.28 C 758.33 198.83 767.06 203.09 767.45 210.07 C 768.04 214.07 765.59 217.54 762.76 220.06 C 762.53 227.38 762.72 234.70 762.66 242.03 C 762.62 243.35 762.54 244.73 761.96 245.95 C 757.71 254.49 749.95 260.46 744.65 268.26 C 747.82 270.89 751.13 273.34 754.29 275.99 C 761.33 270.15 768.16 264.04 774.85 257.79 C 777.04 255.69 779.73 253.37 779.58 250.03 C 779.76 242.25 779.64 234.47 779.60 226.69 C 777.33 224.58 775.09 222.14 774.52 218.98 C 773.51 214.39 775.95 209.25 780.35 207.45 C 786.27 205.02 793.89 209.46 794.29 215.95 C 795.05 220.50 792.08 224.56 788.32 226.74 L 787.09 225.52 C 785.97 231.97 787.14 238.53 786.57 245.02 C 786.80 247.86 785.52 251.58 788.29 253.51 C 788.25 255.59 787.80 257.73 786.35 259.31 C 782.26 264.22 777.33 268.34 772.76 272.78 C 768.19 277.23 762.77 280.84 758.96 286.03 C 767.77 286.47 776.60 285.99 785.42 286.29 C 789.75 282.70 793.57 278.55 797.78 274.82 C 797.68 271.70 797.81 268.36 799.76 265.76 C 802.79 260.92 810.11 260.05 814.49 263.57 C 820.39 267.61 819.41 277.98 812.95 281.00 C 810.30 282.91 807.03 281.80 804.06 281.96 C 798.12 285.49 794.61 292.44 787.93 294.80 C 778.44 295.64 768.87 294.69 759.34 294.89 C 759.33 297.67 759.31 300.45 759.28 303.23 C 776.23 303.30 793.18 303.24 810.13 303.17 C 812.03 301.11 814.01 298.75 816.93 298.20 C 822.63 296.48 829.39 300.92 829.66 306.99 C 830.47 312.54 825.51 317.71 820.02 317.68 C 816.04 318.15 812.77 315.49 810.12 312.89 C 793.14 312.67 776.16 312.68 759.18 312.81 C 759.19 315.43 759.20 318.06 759.22 320.70 C 767.80 320.66 776.38 320.75 784.96 320.72 C 788.06 320.29 790.28 322.76 792.39 324.61 C 796.04 328.21 800.10 331.36 803.91 334.78 C 806.80 334.23 810.02 333.74 812.69 335.39 C 818.50 338.30 820.04 346.93 815.77 351.76 C 811.64 356.29 803.44 355.93 799.79 350.97 C 797.64 348.49 797.61 345.06 797.76 341.97 C 793.17 338.49 789.63 333.63 784.81 330.56 L 784.85 329.27 C 778.56 329.01 772.27 328.95 765.99 328.93 C 764.08 329.04 761.90 328.78 760.47 330.35 C 761.20 331.91 762.00 333.49 763.29 334.68 C 769.28 340.41 775.67 345.71 781.94 351.12 C 785.35 354.15 788.48 358.20 788.44 362.99 C 788.61 371.50 788.34 380.03 788.53 388.55 C 790.13 389.99 791.93 391.30 793.15 393.13 C 796.25 398.51 793.06 406.37 787.02 407.96 C 780.70 410.06 773.28 404.78 773.61 398.04 C 773.31 393.90 776.51 390.96 779.56 388.76 C 779.55 381.62 779.61 374.48 779.49 367.35 C 779.38 365.22 779.43 362.88 777.97 361.15 C 774.42 356.71 769.70 353.42 765.55 349.59 C 761.63 346.32 758.04 342.67 754.14 339.38 C 751.16 342.29 747.81 344.80 744.99 347.86 C 749.53 353.34 754.52 358.44 758.82 364.12 C 760.93 366.94 762.42 370.31 762.56 373.87 C 762.83 380.17 762.60 386.48 762.83 392.78 C 768.23 396.33 769.25 405.02 764.39 409.43 C 760.75 413.00 754.40 412.59 750.72 409.30 C 746.05 404.60 747.15 395.32 753.84 393.05 C 753.58 386.98 753.75 380.91 753.59 374.85 C 753.75 372.04 751.74 369.89 750.07 367.91 C 745.61 362.86 741.04 357.92 736.76 352.72 C 731.59 354.94 727.18 358.50 722.56 361.63 C 720.91 362.93 718.88 364.03 717.94 365.97 C 717.54 369.67 717.78 373.40 717.73 377.11 C 724.11 377.26 730.50 376.92 736.87 377.26 C 738.61 378.11 739.54 380.13 739.40 382.04 C 739.63 392.70 739.30 403.37 739.59 414.04 C 742.45 416.65 745.47 419.83 745.36 424.00 C 745.86 429.71 740.60 434.97 734.94 434.66 C 729.31 434.74 724.19 429.66 724.47 423.99 C 724.26 419.82 727.32 416.60 730.53 414.42 C 730.72 405.32 730.25 396.22 730.55 387.12 C 726.29 387.08 722.04 387.06 717.79 387.08 C 717.82 398.40 717.74 409.72 717.88 421.04 C 717.94 426.23 718.92 431.62 722.19 435.82 C 730.78 448.27 751.35 448.19 760.76 436.74 C 764.16 432.94 765.90 428.06 768.75 423.91 C 770.26 421.40 773.45 421.51 776.00 421.20 C 781.11 420.59 786.48 420.50 791.19 418.16 C 802.36 412.58 809.47 399.51 807.57 387.10 C 807.08 383.30 803.64 381.25 801.30 378.64 C 799.36 376.35 800.81 372.23 803.96 372.19 C 808.49 372.34 810.70 378.95 815.65 377.56 C 826.55 371.03 828.84 356.45 825.29 345.08 C 823.41 340.05 828.13 336.31 830.61 332.55 C 834.88 327.33 836.55 320.66 837.56 314.13 C 838.90 305.40 837.11 296.08 832.37 288.59 C 830.35 285.20 827.02 282.97 824.56 279.97 C 824.11 277.24 824.86 274.52 825.38 271.87 C 826.99 264.66 826.60 257.00 824.19 250.01 C 822.13 243.66 817.23 238.53 811.27 235.67 C 811.27 239.02 811.80 242.44 811.17 245.77 C 808.40 247.70 803.49 246.85 802.94 243.05 C 801.58 231.37 804.45 219.28 801.14 207.83 C 796.43 195.98 783.82 187.73 771.07 187.92 C 768.90 187.74 766.18 188.48 764.60 186.56 C 760.19 181.35 756.85 174.74 750.47 171.60 C 745.61 168.86 739.76 168.66 734.38 169.60 M 732.50 190.36 C 731.90 191.66 732.38 193.11 732.46 194.46 C 734.14 194.59 735.83 194.63 737.52 194.54 C 737.55 192.93 737.50 191.32 737.41 189.72 C 735.74 189.51 733.76 188.83 732.50 190.36 M 755.45 208.68 C 753.09 209.98 754.80 213.58 757.18 213.49 C 758.94 213.74 760.32 211.71 759.72 210.12 C 759.41 208.28 756.86 207.72 755.45 208.68 M 783.48 219.58 C 785.46 220.32 786.71 218.41 787.66 217.03 C 786.74 215.75 786.14 213.58 784.12 214.10 C 781.12 214.08 780.48 219.02 783.48 219.58 M 805.66 269.62 C 802.90 271.88 807.15 276.51 809.45 273.53 C 812.20 271.06 807.97 267.45 805.66 269.62 M 817.33 305.34 C 815.60 305.98 816.05 308.20 816.46 309.58 C 818.07 311.28 821.50 310.21 822.12 307.94 C 822.05 305.65 819.28 303.96 817.33 305.34 M 805.34 342.45 C 803.14 343.80 804.40 347.81 806.97 347.62 C 808.96 347.85 810.82 345.94 810.55 343.94 C 809.90 341.76 807.01 341.54 805.34 342.45 M 780.31 397.92 C 781.31 399.44 782.71 401.51 784.89 400.72 C 786.98 400.20 787.08 397.40 786.00 395.90 C 783.83 394.90 781.42 395.88 780.31 397.92 M 756.38 399.35 C 753.02 400.26 754.91 405.28 757.93 404.91 C 761.07 403.99 759.64 398.23 756.38 399.35 M 732.53 426.40 C 733.85 426.43 735.29 427.05 736.57 426.47 C 738.99 425.17 737.91 420.55 734.95 421.04 C 731.75 420.70 732.20 424.34 732.53 426.40 Z" />
</g>
</svg>
